<svg width="400" height="400" viewBox="0 0 400 400" xmlns="http://www.w3.org/2000/svg">
  <defs>
    <pattern id="puzzle-pattern" x="0" y="0" width="80" height="80" patternUnits="userSpaceOnUse">
      <!-- Main Background Color -->
      <rect width="80" height="80" fill="#eef4f1ff"/>

      <!-- Puzzle Piece 1 -->
      <path d="M 20 10 L 30 10 L 30 0 L 40 0 L 40 10 L 50 10 L 50 20 L 60 20 L 60 30 L 50 30 L 50 40 L 40 40 L 40 50 L 30 50 L 30 40 L 20 40 L 20 30 L 10 30 L 10 20 L 20 20 Z" fill="#3498db" opacity="0.6"/>

      <!-- Simple Cross Shape -->
      <path d="M 70 45 L 75 45 L 75 40 L 80 40 L 80 45 L 85 45 L 85 50 L 80 50 L 80 55 L 75 55 L 75 50 L 70 50 Z" fill="#e74c3c" opacity="0.6" transform="rotate(45 77.5 47.5) translate(-50, 0)"/>
      <!-- Simple Cross Shape -->

      <path d="M 70 45 L 75 45 L 75 40 L 80 40 L 80 45 L 85 45 L 85 50 L 80 50 L 80 55 L 75 55 L 75 50 L 70 50 Z" fill="#c53ce7ff" opacity="0.6" transform="rotate(45 77.5 47.5) translate(-55, 20)"/>

      <!-- Letter "L" -->
      <path d="M 5 55 L 15 55 L 15 60 L 10 60 L 10 75 L 5 75 Z" fill="#5068ddff" opacity="0.6" transform="translate(0, 80) scale(1, -1)"/>

      <!-- Letter "P" -->
       <path d="M 55 65 C 65 65 65 75 55 75 L 55 65 M 55 65 L 55 80 L 50 80 L 50 65 Z" fill="#2ecc71" opacity="0.6" stroke="#2ecc71" stroke-width="2" stroke-linejoin="round" transform="translate(-12, -7) rotate(-15 70 50)" />

    </pattern>
  </defs>
  <rect width="400" height="400" fill="url(#puzzle-pattern)"/>
</svg>
